<?xml version="1.0" encoding="utf-8"?>
<!-- Generator: Adobe Illustrator 24.0.1, SVG Export Plug-In . SVG Version: 6.00 Build 0)  -->
<svg version="1.1" id="图层_1" xmlns="http://www.w3.org/2000/svg" xmlns:xlink="http://www.w3.org/1999/xlink" x="0px" y="0px"
	 viewBox="0 0 14 14" style="enable-background:new 0 0 14 14;" xml:space="preserve">
<style type="text/css">
	.st0{fill:none;}
	.st1{fill:#D60B0A;}
</style>
<g id="刷新" transform="translate(20693 -13283)">
	<rect id="矩形_537" x="-20693" y="13283" class="st0" width="14" height="14"/>
	<path id="路径_972" class="st1" d="M-20680.5,13288.3h-2.5c-0.3,0-0.6-0.3-0.5-0.6c0-0.3,0.3-0.5,0.5-0.5h1
		c-1.6-2.2-4.7-2.8-6.9-1.2c-2.2,1.6-2.8,4.7-1.2,6.9s4.7,2.8,6.9,1.2c1.3-0.9,2.1-2.4,2.1-4c0-0.3,0.3-0.6,0.6-0.5
		c0.3,0,0.5,0.3,0.5,0.5c0,3.4-2.7,6.1-6.1,6.1c-3.4,0-6.1-2.7-6.1-6.1c0-3.4,2.7-6.1,6.1-6.1c2,0,3.8,0.9,5,2.6v-1
		c0-0.3,0.3-0.6,0.6-0.5c0.3,0,0.5,0.3,0.5,0.5v2.3C-20679.9,13288-20680.2,13288.3-20680.5,13288.3z"/>
</g>
</svg>
