<?xml version="1.0" standalone="no"?><!DOCTYPE svg PUBLIC "-//W3C//DTD SVG 1.1//EN" "http://www.w3.org/Graphics/SVG/1.1/DTD/svg11.dtd"><svg t="1617951739907" class="icon" viewBox="0 0 1024 1024" version="1.1" xmlns="http://www.w3.org/2000/svg" p-id="3281" xmlns:xlink="http://www.w3.org/1999/xlink" width="200" height="200"><defs><style type="text/css"></style></defs><path d="M512 343.466667a106.666667 106.666667 0 1 1-75.52 31.146666A106.666667 106.666667 0 0 1 512 343.466667m0-64a170.666667 170.666667 0 1 0 120.746667 49.92A170.666667 170.666667 0 0 0 512 279.466667z" fill="#605e60" p-id="3282" style="user-select: auto;"></path><path d="M512 130.133333a320 320 0 0 1 226.346667 546.346667l-211.2 211.2a21.333333 21.333333 0 0 1-30.293334 0l-211.2-211.2A320 320 0 0 1 512 130.133333m0-64a384 384 0 0 0-271.573333 655.573334l211.2 211.2a85.333333 85.333333 0 0 0 120.746666 0l211.2-211.2A384 384 0 0 0 512 66.133333z" fill="#605e60" p-id="3283" style="user-select: auto;"></path></svg>