<?xml version="1.0" standalone="no"?><!DOCTYPE svg PUBLIC "-//W3C//DTD SVG 1.1//EN" "http://www.w3.org/Graphics/SVG/1.1/DTD/svg11.dtd"><svg t="1616828972526" class="icon" viewBox="0 0 1024 1024" version="1.1" xmlns="http://www.w3.org/2000/svg" p-id="3412" xmlns:xlink="http://www.w3.org/1999/xlink" width="200" height="200"><defs><style type="text/css"></style></defs><path d="M842.472727 1024H181.527273C79.127273 1024 0 944.872727 0 842.472727V181.527273C0 79.127273 79.127273 0 181.527273 0h660.945454C944.872727 0 1024 79.127273 1024 181.527273v660.945454c0 102.4-79.127273 181.527273-181.527273 181.527273z" fill="#B0C4C8" p-id="3413" style="user-select: auto;"></path><path d="M1024 181.527273v660.945454c0 102.4-79.127273 181.527273-181.527273 181.527273H181.527273" fill="#DFB08C" p-id="3414" style="user-select: auto;"></path><path d="M181.527273 1024h660.945454c102.4 0 181.527273-79.127273 181.527273-181.527273V181.527273c0-51.2-23.272727-97.745455-55.854545-130.327273L51.2 968.145455c32.581818 32.581818 79.127273 55.854545 130.327273 55.854545z" fill="#A0B2B6" p-id="3415" style="user-select: auto;"></path><path d="M842.472727 69.818182c60.509091 0 111.709091 51.2 111.709091 111.709091v660.945454c0 60.509091-51.2 111.709091-111.709091 111.709091H181.527273c-60.509091 0-111.709091-51.2-111.709091-111.709091V181.527273c0-60.509091 51.2-111.709091 111.709091-111.709091h660.945454m0-69.818182H181.527273C79.127273 0 0 79.127273 0 181.527273v660.945454C0 944.872727 79.127273 1024 181.527273 1024h660.945454c102.4 0 181.527273-79.127273 181.527273-181.527273V181.527273C1024 79.127273 944.872727 0 842.472727 0z" fill="#C6D5D8" p-id="3416" style="user-select: auto;"></path></svg>