<?xml version="1.0" standalone="no"?><!DOCTYPE svg PUBLIC "-//W3C//DTD SVG 1.1//EN" "http://www.w3.org/Graphics/SVG/1.1/DTD/svg11.dtd"><svg t="1617951758358" class="icon" viewBox="0 0 1024 1024" version="1.1" xmlns="http://www.w3.org/2000/svg" p-id="3442" xmlns:xlink="http://www.w3.org/1999/xlink" width="200" height="200"><defs><style type="text/css"></style></defs><path d="M512 85.333333a426.666667 426.666667 0 1 0 426.666667 426.666667A426.666667 426.666667 0 0 0 512 85.333333z m375.466667 426.666667a373.12 373.12 0 0 1-27.733334 140.8h-166.613333A921.813333 921.813333 0 0 0 704 512a921.813333 921.813333 0 0 0-10.88-140.8h166.613333a373.12 373.12 0 0 1 27.733334 140.8zM512 887.466667c-39.04 0-90.24-67.84-118.826667-183.466667h237.653334c-28.586667 115.626667-79.786667 183.466667-118.826667 183.466667z m-129.28-234.666667a866.133333 866.133333 0 0 1 0-281.6h258.56a835.626667 835.626667 0 0 1 11.52 140.8 835.626667 835.626667 0 0 1-11.52 140.8zM136.533333 512a373.12 373.12 0 0 1 27.733334-140.8h166.613333a917.333333 917.333333 0 0 0 0 281.6H164.266667A373.12 373.12 0 0 1 136.533333 512zM512 136.533333c39.04 0 90.24 67.84 118.826667 183.466667H393.173333c28.586667-115.626667 79.786667-183.466667 118.826667-183.466667zM834.133333 320H682.666667a477.653333 477.653333 0 0 0-69.333334-168.96A375.893333 375.893333 0 0 1 834.133333 320zM410.026667 151.04A477.653333 477.653333 0 0 0 341.333333 320H189.866667a375.893333 375.893333 0 0 1 220.16-168.96zM189.866667 704H341.333333a477.653333 477.653333 0 0 0 69.333334 168.96A375.893333 375.893333 0 0 1 189.866667 704z m424.106666 168.96A477.653333 477.653333 0 0 0 682.666667 704h151.466666a375.893333 375.893333 0 0 1-220.16 168.96z" fill="#605e60" p-id="3443" style="user-select: auto;"></path></svg>